<?xml version="1.0" standalone="no"?>
<!DOCTYPE svg PUBLIC "-//W3C//DTD SVG 20010904//EN"
 "http://www.w3.org/TR/2001/REC-SVG-20010904/DTD/svg10.dtd">
<svg version="1.0" xmlns="http://www.w3.org/2000/svg"
 width="150.000000pt" height="150.000000pt" viewBox="0 0 150.000000 150.000000"
 preserveAspectRatio="xMidYMid meet">

<g transform="translate(0.000000,150.000000) scale(0.100000,-0.100000)"
fill="#000000" stroke="none">
<path d="M668 1199 c-22 -11 -38 -15 -38 -9 0 7 -9 5 -22 -4 -12 -9 -30 -16
-39 -16 -9 0 -24 -9 -34 -20 -10 -11 -28 -20 -40 -20 -25 0 -125 -84 -125
-104 0 -7 -14 -25 -31 -42 -52 -49 -69 -81 -84 -153 -14 -65 -14 -71 6 -116
15 -33 19 -57 14 -81 -4 -26 2 -51 26 -106 89 -205 98 -218 153 -218 14 0 27
-4 31 -9 3 -5 20 -13 38 -16 17 -4 52 -18 77 -30 34 -17 66 -24 125 -26 44 -2
93 -6 108 -10 16 -5 38 -3 52 3 18 8 28 8 40 -2 12 -10 15 -10 15 4 0 9 5 16
11 16 6 0 22 14 36 31 16 18 31 28 41 24 12 -4 13 -3 2 10 -10 12 -8 16 15 25
14 5 29 10 33 10 4 0 15 12 24 28 10 15 31 47 47 72 16 25 32 56 36 70 l8 25
-25 -25 c-14 -14 -69 -56 -122 -93 -71 -51 -103 -68 -124 -66 -32 3 -71 -8
-93 -27 -32 -29 -182 -16 -264 21 -58 27 -204 171 -224 223 -8 17 -16 32 -20
32 -16 0 6 220 31 303 8 28 35 65 79 112 85 89 190 147 280 153 48 4 59 8 59
22 0 35 -47 39 -102 9z"/>
<path d="M841 1181 c-14 -4 -26 -12 -28 -18 -5 -15 36 -43 63 -43 11 0 60 -27
107 -60 48 -33 95 -60 106 -60 13 0 21 -9 25 -33 3 -18 15 -40 26 -50 11 -9
20 -29 20 -45 0 -15 11 -43 25 -62 14 -19 25 -45 26 -59 1 -19 3 -16 10 14 7
27 6 41 -1 43 -5 2 -8 7 -6 10 2 4 0 33 -4 65 -7 44 -21 77 -64 146 -55 87
-98 128 -159 150 -31 12 -108 13 -146 2z"/>
<path d="M595 968 c-3 -7 -13 -41 -24 -76 -19 -63 -19 -64 0 -80 14 -12 19
-30 19 -69 l0 -53 145 0 145 0 0 53 c0 41 4 55 20 65 25 15 25 18 -1 103 l-21
69 -139 0 c-103 0 -141 -3 -144 -12z m75 -17 c0 -10 -3 -39 -6 -65 -5 -36 -11
-46 -25 -46 -22 0 -22 0 -8 73 8 36 17 57 25 57 8 0 14 -8 14 -19z m80 0 c0
-10 3 -39 6 -65 6 -42 5 -46 -15 -46 -19 0 -21 5 -21 65 0 51 3 65 15 65 8 0
15 -8 15 -19z m92 -26 c4 -22 10 -50 13 -62 4 -18 1 -23 -14 -23 -15 0 -21 9
-26 38 -3 20 -8 50 -10 65 -4 23 -1 28 12 25 11 -2 20 -18 25 -43z m-19 -120
l37 2 0 -44 c0 -49 -26 -63 -32 -15 -2 19 -9 27 -23 27 -14 0 -21 -8 -23 -27
-2 -16 -8 -28 -13 -28 -5 0 -9 6 -8 13 4 33 -2 47 -21 47 -15 0 -22 -9 -27
-32 l-7 -33 -6 30 c-7 41 -44 43 -48 3 -2 -20 -9 -28 -23 -28 -16 0 -19 7 -19
44 l0 44 71 -2 c39 -1 73 2 76 7 2 4 10 4 16 -1 7 -5 29 -8 50 -7z"/>
<path d="M620 611 c0 -34 4 -61 10 -61 6 0 10 24 10 54 0 30 -4 58 -10 61 -6
4 -10 -17 -10 -54z"/>
<path d="M440 605 c0 -30 5 -55 10 -55 6 0 10 11 10 24 0 19 6 26 28 29 l27 4
-27 2 c-21 1 -28 6 -28 20 0 15 8 21 33 24 28 3 26 4 -10 5 l-43 2 0 -55z"/>
<path d="M545 620 c-4 -6 -4 -14 -1 -17 3 -4 6 -1 6 5 0 7 7 12 15 12 10 0 15
-10 15 -30 0 -20 -5 -30 -15 -30 -18 0 -20 16 -2 23 7 3 6 6 -5 6 -9 1 -20 -4
-23 -9 -11 -17 13 -38 38 -33 21 4 23 9 18 41 -6 37 -32 55 -46 32z"/>
<path d="M672 618 c-31 -31 3 -90 39 -67 11 7 9 9 -9 9 -12 0 -25 7 -28 15 -8
19 15 48 33 41 7 -3 13 -1 13 4 0 14 -34 12 -48 -2z"/>
<path d="M752 618 c-33 -33 5 -92 42 -65 25 18 18 71 -9 75 -11 1 -26 -3 -33
-10z m46 -27 c4 -28 -17 -45 -35 -29 -14 11 -17 40 -6 52 14 14 38 0 41 -23z"/>
<path d="M840 587 c4 -40 5 -40 8 -9 2 17 7 32 13 32 5 0 12 0 17 0 4 1 10
-14 14 -32 6 -31 6 -31 5 7 -2 37 -4 40 -32 42 -30 1 -30 0 -25 -40z"/>
<path d="M930 591 c0 -23 4 -41 8 -41 12 0 13 68 2 75 -6 4 -10 -11 -10 -34z"/>
<path d="M975 620 c-5 -9 -1 -10 13 -6 30 10 37 -12 8 -24 -44 -16 -28 -54 17
-42 28 7 20 76 -10 80 -11 2 -24 -2 -28 -8z m40 -50 c-3 -5 -13 -10 -21 -10
-8 0 -12 5 -9 10 3 6 13 10 21 10 8 0 12 -4 9 -10z"/>
<path d="M445 519 c-4 -6 -4 -13 -1 -16 3 -4 6 -1 6 6 0 8 6 11 16 7 8 -3 12
-2 9 4 -8 13 -22 13 -30 -1z"/>
<path d="M632 500 c0 -19 2 -27 5 -17 2 9 2 25 0 35 -3 9 -5 1 -5 -18z"/>
<path d="M657 490 c3 -11 7 -20 9 -20 2 0 4 9 4 20 0 11 -4 20 -9 20 -5 0 -7
-9 -4 -20z"/>
<path d="M814 499 c-3 -6 -2 -15 3 -20 5 -5 9 -1 9 11 0 23 -2 24 -12 9z"/>
<path d="M842 490 c0 -14 2 -19 5 -12 2 6 2 18 0 25 -3 6 -5 1 -5 -13z"/>
<path d="M1001 483 c2 -24 2 -25 6 -5 2 12 9 22 15 22 6 0 7 -8 3 -17 -5 -14
-3 -15 6 -6 13 13 4 33 -17 33 -9 0 -14 -10 -13 -27z"/>
<path d="M466 485 c4 -8 10 -12 15 -9 11 6 2 24 -11 24 -5 0 -7 -7 -4 -15z"/>
</g>
</svg>
